<?xml version="1.0" encoding="utf-8"?>
<!-- Generator: Adobe Illustrator 17.1.0, SVG Export Plug-In . SVG Version: 6.00 Build 0)  -->
<!DOCTYPE svg PUBLIC "-//W3C//DTD SVG 1.1//EN" "http://www.w3.org/Graphics/SVG/1.1/DTD/svg11.dtd">
<svg version="1.1" id="Layer_1" xmlns="http://www.w3.org/2000/svg" xmlns:xlink="http://www.w3.org/1999/xlink" x="0px" y="0px"
	 viewBox="0 0 200 314" enable-background="new 0 0 200 314" xml:space="preserve">
<g id="layer_2">
	<path fill="none" stroke="#000000" stroke-miterlimit="10" d="M47.8,78.5c0.5-5.4-2-8.5-5.8-8.6c-3.8-0.3-3.4,8-10.2,0
		s-1.2-7.5-2.3-9.5c-1.1-2-5.7-1.1-7.1-2c-1.2-1.1-3.1-2.3-1.1-4.6c2.2-2.3,2.6-3.8,4.6-6c2.2-2,3.7,0.9,6.2-1.1
		c0.9-0.8,1.5-4.6,4.2-3.4c2.6,1.2,4,3.7,4.9,4.9c0,0,1.1,2.2,4.6,1.4l0,0l0.3-0.2c6.5-3.1,6.9-5.7,4.5-8.5c-2.5-2.8-1.7,0,4.5-4.2
		s2.5-5.4-1.8-7.4s-1.1-3.2,0-3.4c1.4-0.3,5.1-2.8,6-3.4c0.9-0.6,13.8-3.8,13.8-3.8l0.3-0.2c3.7-2,5.8-4.3,7.2-2.5
		c1.2,1.8,4.2,3.7,7.2,0.8c3.1-2.9,7.8-2.8,8-1.2c0.3,1.5,1.2,3.4,5.4,3.1c4.2-0.3,17.4,0.6,17.4-4.2s7.2-4.9,8.6-3.7
		c1.2,1.2,2,6.9,3.1-0.6c1.1-7.7,4.2-12.6,7.8-3.7c3.7,8.8,2.6,9.5,4.5,11.4c1.8,1.8,2.9,4.9,2.9,8s7.1,9.4,9.5,13.2
		c2.6,3.8,9.8,10.9,12,13.5c1.5,1.8,3.4,11.4,6.5,15.8c3.1,4.5,6.6,5.2,9.1,14c1.1,4,1.2,4.3,1.2,4.3l0.2,0.2c0,0,2,4.5,4,6.2
		c2,1.7,0.2,9.5,0,10.6c-0.2,1.1-1.5,2.5,0.3,4.2c2.3,2.2,0.5,9.5,0,13.7c-0.5,4.2,2.6,10.5,1.1,13.2c-1.5,2.9-3.5-0.8-3.1,6.2
		c0.5,7.1,1.2,9.7,1.8,11.7c0.5,2-0.3,4.2,0.5,5.7c0.8,1.5,4.9-0.8,5.2-2.6c0.3-1.8,3.8-2,3.4,1.5c-0.5,3.7,1.8,5.2,0,8.8
		c-1.8,3.7-1.4,5.4-2.9,8.3c-1.5,2.9-2.9,2.2-1.2,4.9c0,0,0.5,1.2,0.3,2.2c-0.3,4.6-0.6,10.6-2.8,12.6c-3.1,2.8-3.5,3.2-3.1,4.3
		c1.1,2.2-2.3,6.5-2.3,6.5l-0.5,1.2c-1.7,4.2-2.9,6.3-2.9,6.3c-2.5,6.3-5.7,5.5-6.2,4.8c-0.6-0.8-4.6-1.1-4.6,0.9s-2.5,3.4-2.5,3.4
		c-8.3,2.3-10.2,4.8-10.2,4.8l-0.3,0.3c-0.9,0.9-0.9,5.2-0.9,5.2c-0.3,8-5.2,14.3-9.1,14.2c-3.8-0.2-11.1-0.2-12-5.7
		c-0.9-5.5-3.8-2.9-4.9-2c-1.2,0.9-6,1.8-7.4,1.5c-1.4-0.2-2.9,0.9-3.2,3.8c0,0,1.1,2.9-2.6,1.2c-3.7-1.7-6.3-1.5-8.9-0.9l0,0
		l-0.3,1.5c-1.1,2.2-1.1,8-11.7,4.6s-3.8,3.1-4.2,7.1c-0.3,3.8-2,5.7-7.5,3.7c-5.4-2-3.1,3.1-5.7,3.1s-7.1-0.5-7.8,0.8
		c-0.8,1.2,0.3,5.2-2,6.5s-3.8,1.1-9.4,0.8c-5.4-0.3-13.7-0.3-13.7-0.3l-8.3-3.1c0,0-5.2-2.6-6.8-2.3c-1.5,0.3-7.5,2-9.4,2
		c-1.8,0,8.3,9.7-5.7,8.6c-7.5,7.1-10,2.8-10.5,0c-0.3-1.2-5.1,1.5-2.9-3.8s5.2-12.2,8.8-14c1.2-0.6,5.7-2.9-0.8-4.9
		c-6.5-2-2.6-3.1-2.6-6s-1.2-2.3-2.3-4.6s-0.3-3.7,1.1-4.9s4.5,0.5,3.7-6.8c-0.3-2.2,0.8-1.7,3.4-2.3c4.3-1.1,5.2-4.2,1.1-6.5
		s-6.5-6.2-1.1-6.8c5.4-0.5,7.8,0.8,10.9,0c3.1-0.8,7.1-1.5,4.6-6.5c-2.3-4.9,2.9-6.5,3.1-8c0.2-1.5-1.4-1.2,0-3.8
		c0.3-0.5,1.1-0.9,1.1-0.9s0.3-3.4,1.2-4.3c1.1-0.9,2.2-0.6,1.4-3.8c-0.8-3.4,4-6.2,4.3-6.3c0.2-0.2,8.2-5.8,2.3-13.5
		c0,0-6.8-5.8-2-6.5l5.4-1.2l0,0l-5.2-6c-6-5.5-3.7-6.3-1.8-7.5c1.8-1.2,1.5-8.3-4.2-8.8c-5.7-0.5-9.1-6.5-7.1-11.2
		c2.2-4.6-1.1-8.8-4.9-6.3c-3.8,2.6-3.8-2.6-3.4-6.2c0.5-3.7-0.3-7.5,1.5-9.4c1.1-1.1,11.2-9.4,12.2-9.8c1.1-0.5,2.9-2,8,0
		c5.2,2,6.3,2.5,6.8,2.6c0,0,1.5,0.5,2.9,0.2c0.5-0.2,0-0.8,0-0.8c-0.2-0.6-5.4-6.3-7.1-8.9c-1.8-2.6-0.8-4.8,1.4-5.5
		C48,83,47.8,78.5,47.8,78.5z"/>
	<path fill="none" stroke="#000000" stroke-miterlimit="10" d="M33.1,291.2c0,0-3.4,5.1-9.4,6c-6,0.9-3.8,8.9-0.5,11.1
		s4.6,5.7,9.4,2.5c2.5-1.7,7.4,0.2,13.5-0.5c2.5-0.2,17.7-7.4,16.6-13.7c-1.2-6.3-4.2-10.2-10.8-8.2s-11.5,1.7-13.4,1.7
		C36.6,290.2,35.1,289.8,33.1,291.2z"/>
</g>
<g id="layer_1">
	<path fill="none" stroke="#000000" stroke-miterlimit="10" d="M33.1,290.7c0,0-3.4,5.1-9.4,6c-6,0.9-3.8,8.9-0.5,11.1
		c3.4,2.2,4.6,5.7,9.4,2.5c2.5-1.7,7.4,0.2,13.5-0.5c2.5-0.2,17.7-7.4,16.6-13.7c-1.2-6.3-4.2-10.2-10.8-8.2s-11.5,1.7-13.4,1.7
		C36.6,289.9,35.1,289.5,33.1,290.7z"/>
	<path fill="none" stroke="#000000" stroke-miterlimit="10" d="M163.5,210.5c-3.2,1.4-2.9,4.2-2.9,4.2c-2.3,6.3-5.7,4-7.4,2.8
		s-4.2-2.8-4.5-0.9c-0.3,1.8-5.1,4.2-5.1,4.2c-6,2.6-1.7,5.7-1.7,5.7c5.2,5.7,5.5,2.5,9.2-2c3.7-4.3,7.5,2.5,7.5,2.5
		c-0.9,0.9-1.1,5.4-1.1,5.4c-0.3,8-5.2,14.3-9.1,14.2c-3.8-0.2-11.1-0.2-12-5.7c-1.1-5.5-3.8-2.9-4.9-2c-1.2,0.9-6,1.8-7.4,1.5
		c-1.4-0.2-2.9,0.9-3.2,3.8c0,0,1.1,2.9-2.6,1.2c-3.7-1.7-6.3-1.5-8.9-0.9c0,0-0.6-1.2-0.6-6.5v0.2c0.6-7.1-1.2-5.1-2-6.9
		c-0.6-1.8-0.8-6-1.2-6.8c-0.5-0.8-5.8-3.5-6.9-7.8c-0.8-2.9-2.2-6.6-2.3-9.8l-0.2-0.5v-0.8c-0.2-0.8,2.3-5.1,2.3-5.1
		c1.5-3.5-0.6-4.2-1.2-5.7c-0.6-1.5-1.7-6.3-0.3-7.4s2-3.5,2-3.5c0.9-11.4,12.9-13.2,12.9-13.2s12.9,4.6,14.2,5.4
		c1.2,0.8,3.5,3.7,2.3,6.3c0,0-0.6,3.4,6.2,2.9l0.5-0.2c0,0,8.2-0.6,11.4,1.8l0.6,0.6c1.4,1.7,9.8,2.9,13.8,2.3
		c4-0.5,4.5-2.8,7.2-3.5l1.5-0.8c0,0,0.6,3.1-1.4,4.9c-2,2,0.2,3.1,2.6,4.2s7.8,2,8.8,4.5C179.5,199,175.1,205.3,163.5,210.5z"/>
	<path fill="none" stroke="#000000" stroke-miterlimit="10" d="M182.3,212.5c-2.5,6.3-5.7,5.5-6.2,4.8c-0.6-0.8-4.6-1.1-4.6,0.9
		c0,2-2.5,3.4-2.5,3.4c-8.3,2.3-10.3,5.1-10.3,5.1s-3.8-6.8-7.5-2.5c-3.7,4.5-4,7.7-9.2,2c0,0-4.3-3.1,1.7-5.7c0,0,4.8-2.2,5.1-4.2
		c0.3-1.8,2.8-0.3,4.5,0.9c1.7,1.2,5.2,3.7,7.4-2.8c0,0-0.2-2.8,2.9-4.2c11.5-5.2,15.8-11.8,16-11.5c0.3,0.8-0.2,7.4,5.8,6.2
		C186.3,205,182.3,212.5,182.3,212.5z"/>
	<path fill="none" stroke="#000000" stroke-miterlimit="10" d="M188,198.5c-0.5-1.1-0.2-1.7,3.1-4.3c3.1-2.8,2.6-13.5,2.6-13.5
		c0,1.8-8.8,3.1-10.9,1.8c-2.3-1.4-3.5-2.6-7.2-1.8c-1.5,0.3-6,4.8-6,4.8s0.6,3.1-1.4,4.9c-2,2,0.2,3.1,2.6,4.2s7.8,2,8.8,4.5
		c0,0,0.2,6.8,4.6,6.2h1.2C185.4,205.2,188.9,200.7,188,198.5z"/>
	<path fill="none" stroke="#000000" stroke-miterlimit="10" d="M108.6,237.8c0.6-7.1-1.2-5.1-2-6.9c-0.6-1.8-0.8-6-1.2-6.8
		s-5.8-3.5-6.9-7.8c-0.8-2.9-2.2-6.6-2.3-9.8l-0.2-0.5c-0.3-2.3-4.3-4.2-6-2.3c-1.1,1.1-6,3.8-8.2,2.9c-2.2-0.9-4.6-0.8-7.8,0.5
		s-6.5-5.4-8.5-6.8c-2-1.2-9.2-6.3-11.4-2.3c-2.2,4-8.6,8-8.6,8c-1.7,0-4-1.1-4-1.1c-2.3-1.8-6.3-7.5-6.3-7.5s-0.8-1.7-2,0.3
		c-1.5,2.5,0.3,2.3,0,3.8c-0.3,1.5-5.4,3.1-3.1,8s-1.5,5.7-4.6,6.5s-5.4-0.5-10.9,0c-5.4,0.5-3.1,4.5,1.1,6.8s3.2,5.4-1.1,6.5
		c-2.6,0.6-3.7,0.2-3.4,2.3c0.9,7.2-2.3,5.4-3.7,6.8c-1.4,1.2-2,2.6-1.1,4.9c1.1,2.3,2.3,1.8,2.3,4.6c0,2.9-3.8,3.8,2.6,6
		s2,4.3,0.8,4.9c-3.7,1.8-6.8,8.6-8.8,14s2.8,2.6,2.9,3.8c0.6,2.8,2.9,7.1,10.5,0c14,1.2,3.8-8.6,5.7-8.6s7.8-1.8,9.4-2
		c1.5-0.3,6.8,2.3,6.8,2.3l8.3,3.1c0,0,8.3,0,13.7,0.3c5.4,0.3,7.1,0.5,9.4-0.8c2.3-1.2,1.2-5.2,2-6.5c0.8-1.2,5.2-0.8,7.8-0.8
		c2.6,0,0.3-5.2,5.7-3.1c5.4,2,7.2,0.3,7.5-3.7c0.3-3.8-6.5-10.3,4.2-7.1c10.6,3.4,10.5-2.5,11.7-4.6l0.3-1.5
		C109.1,244.1,108.5,242.7,108.6,237.8"/>
	<path fill="none" stroke="#000000" stroke-miterlimit="10" d="M41.5,162.5c-4.8,0.5,2,6.5,2,6.5c5.8,7.7-2.2,13.4-2.3,13.5
		s-4.9,3.1-4.3,6.3c0.8,3.5-0.8,3.1-1.4,3.8c-2.3,3.4-0.5,4.9-0.5,4.9s4,5.7,6.3,7.5c0,0,2.2,1.1,4,1.1c0,0,6.5-4,8.6-8
		c2.2-4,9.4,1.1,11.4,2.3c2,1.2,5.2,7.8,8.5,6.8c3.2-1.2,5.7-1.2,7.8-0.5c2.2,0.9,6.9-1.8,8.2-2.9c3.4-2.8,6.3,2.3,6.2,1.5
		c-0.2-0.8,2.3-5.1,2.3-5.1c1.5-3.5-0.6-4.2-1.2-5.7c-0.6-1.5-1.7-6.3-0.3-7.4c1.4-1.1,2-3.5,2-3.5c0.9-11.4,12.9-13.2,12.9-13.2
		c0-1.2-0.8-4.9-1.2-6.8c-0.5-1.8-10.5-2.9-10.5-2.9c0.9,3.8-9.5,3.2-12.2,2.5c-2.6-0.8-2.9-4.8-5.2-7.4c-2.2-2.6-6.3,1.5-8.5,3.2
		c-2,1.7-6.2,1.4-6.2-1.2c0.2-2.6-1.7-6.3-4-6.6c-2.3-0.5-4.5,2.6-6.6,7.8c-2.2,5.4-10.5,2.3-10.5,2.3L41.5,162.5z"/>
	<path fill="none" stroke="#000000" stroke-miterlimit="10" d="M142,99.2c-1.7,2.9-1.1,6.3-1.1,6.3s2.2,8.6-7.4,4.8
		c-9.5-3.7-8,0-10.9,0.9s-5.5,5.4-8.3,7.7c-2.8,2.3-8,3.7-5.8,6.3c2.2,2.8,3.8,5.2,3.1,8.2c-0.6,2.9-4.8,5.4-3.7,7.8
		c1.2,2.5,4.3,3.1,7.7,3.1c3.4-0.2,4,2.8,1.4,6.8s-2.9,8.8-3.8,9.5l-2.6,2.5c-4.5-2.3-10.8-2.5-10.8-2.5l-0.3-1.7
		c-2.2-6.2-2.6-9.8-3.2-11.1c-1.5-3.1-4.6-1.8-4.6-1.8l0.9-2c0.2-0.5,0.6-3.8,0.9-5.2c0.3-1.4,0.3-4.2-0.2-5.2
		c-0.5-1.1-1.2-0.9-2.3-1.2s-5.1-3.5-5.1-3.5s-2.5-4.5-4-6.5c-4.9-6.2,1.1-7.5,1.1-7.5s11.1-2.2,1.5-10.2c0,0,3.4-6.5,4.8-7.2
		c1.4-0.8,5.1-1.4,6.9-2.5c1.8-1.1,6.5-5.1,6.5-5.1l0.9-0.8l0.5-0.5c0,0,8.6,2.6,10.9-4.9c0,0,1.7-4,2.9,0.8s6.2-1.2,6.2-1.2
		s2.6-2.6,5.7,2c2.9,4.8,0.9,3.5,9.8,5.7c0,0,4.3-0.3,5.4,5.2C145.1,96.5,143.1,97.5,142,99.2z"/>
	<path fill="none" stroke="#000000" stroke-miterlimit="10" d="M83.1,115.2c11.1-3.2,1.7-9.8,1.7-9.8l-0.3-0.2c0,0-1.2,0.2-7.7-2.2
		S66,103,66,103c-11.4,3.7-14-4.2-14.6-3.8c-0.6,0.3-2.9-0.2-2.9-0.2c-0.5-0.2-1.5-0.5-6.8-2.6c-5.2-2-7.1-0.5-8,0
		c-1.1,0.5-11.1,8.9-12.2,9.8c-1.8,1.8-1.1,5.7-1.5,9.4c-0.5,3.7-0.5,8.8,3.4,6.2s7.1,1.5,4.9,6.2c-2,4.6,1.2,10.6,7.1,11.2
		c5.7,0.5,6,7.5,4.2,8.8s-4.2,2,1.8,7.5l5.4,5.7c0,0,8.3,3.1,10.5-2.3c2.2-5.4,4.3-8.3,6.6-7.8c2.3,0.5,4.2,4,4,6.6
		c-0.2,2.6,4,2.9,6.2,1.2s6.2-6,8.5-3.2c2.2,2.6,2.6,6.6,5.2,7.4c2.6,0.8,14,2.2,11.8-3.8c-2.2-6.2-2.8-9.8-3.2-11.1
		c-1.2-2.8-3.7-2.2-4.6-1.7l-0.5,0.6c-1.4,2-1.2,1.7-1.7,2.2c-0.5,0.5-2.3,1.7-4.2,0.6c-2-1.1-5.5-0.2-6.3-8.8
		c-0.2-2,0.6-5.1,0.6-5.1s0-0.2-2.3-0.6c-2-0.3-2.5-2.5-3.1-7.1c-0.6-4.5,0.8-4.3-0.8-4.5c-1.5-0.2-0.6-1.7-0.2-3.4
		c0.5-1.5-0.9-2.9-1.4-5.1s2.5-3.7,3.5-1.7c0.9,2,3.4,3.1,4.9,2.8C81.1,116.2,82.3,115.3,83.1,115.2z"/>
	<path fill="none" stroke="#000000" stroke-miterlimit="10" d="M146.8,187.3c1.4,1.7,9.8,2.9,13.8,2.3c4-0.5,4.5-2.8,7.2-3.5
		c2.9-0.8,4.8-4.9,7.8-5.5c2.9-0.6,4.9,0.6,7.1,2c2,1.2,11.1,0,11.1-1.8c0-0.3-0.3-0.9-0.3-0.9c-1.5-2.9-0.3-2,1.2-4.9
		c1.5-2.9,1.1-4.6,2.9-8.3s-0.6-5.2,0-8.8c0.5-3.7-3.1-3.4-3.4-1.5c-0.3,1.8-4.5,4.2-5.2,2.6c-0.8-1.5,0-3.7-0.5-5.7
		s-1.2-4.6-1.8-11.7c-0.5-7.1,1.5-3.4,3.1-6.2c1.5-2.9-1.5-9.1-1.1-13.2c0.5-4.2,2.3-11.7,0-13.7c-1.8-1.7-0.6-3.2-0.3-4.2
		c0.2-0.9,1.8-8.9,0-10.6c-2-1.7-4.2-6.5-4.2-6.5s-4.3,7.5-7.8,7.4c-3.5-0.2-8-1.8-8.8-1.8s-2.2,0.5-2.8,1.8c-0.6,1.4-3.7,1.2-5.4,0
		c-1.8-1.2-2.8-0.2-5.4,0.5c-2.6,0.5-9.4,0.5-12,4.6c-1.7,2.8-1.1,6.3-1.1,6.3s2.2,8.6-7.4,4.8c-9.5-3.7-8,0-10.9,0.9
		s-5.5,5.4-8.3,7.7s-8,3.7-5.8,6.3c2.2,2.8,3.8,5.2,3.1,8.2c-0.6,2.9-4.8,5.4-3.7,7.8c1.2,2.5,4.3,3.1,7.7,3.1
		c3.4-0.2,4,2.8,1.4,6.8s-2.9,8.8-3.8,9.5c-1.5,1.4-2.9,2.8-2.9,2.8s1.2,4.3,1.2,6.8c0,0,12.9,4.6,14.2,5.4c1.2,0.8,3.5,3.7,2.3,6.3
		c0,0-0.6,3.4,6.2,2.9c0,0,5.5-7.2,1.7-12c0,0-3.5-3.4,1.5-5.4c5.1-2.2,3.1-5.2,7.2-5.4c4.2-0.3,7.5-2.3,8.8-1.2
		c1.2,1.2,7.1,6.5,4.8,8.8s-7.2,10.5-8.9,11.4c-1.7,0.9-4.2,0.8-4,2.3c0,0.3,0.8,3.2,0.8,3.2L146.8,187.3z"/>
	<path fill="none" stroke="#000000" stroke-miterlimit="10" d="M184.2,86.7c0,0-4.3,7.5-7.8,7.4c-3.5-0.2-8-1.8-8.8-1.8
		s-2.2,0.5-2.8,1.8s-3.5,1.1-5.4,0c-2.3-1.4-2.8,0.3-5.7,0.5c-6.3,0.5-8.6,1.8-8.6,1.8c-1.1-5.7-5.4-5.2-5.4-5.2
		c-8.9-2.2-6.9-0.9-9.8-5.7s-5.7-2.2-5.7-2.2s-4.9,6-6.2,1.2s-2.9-0.8-2.9-0.8c-2.3,7.5-10.9,4.9-10.9,4.9v-0.5
		c0,0,0.6-7.8,1.2-10.2c0.6-2.3,0.2-6-0.5-7.4c-0.5-1.2,0.2-2.3,0.2-2.3c4.3-9.4-2.8-6.8-5.2-7.4c-1.4-0.3-5.2-1.2-5.7-3.1
		c-0.5-2-1.7-5.8-1.7-8.9s1.5-4.2,1.5-5.7c0-1.5,2.2-6.8-10.9-13.7c-13.1-6.8-9.4-11.4-9.4-11.4c3.7-2,5.8-4.3,7.2-2.5
		c1.2,1.8,4.2,3.7,7.2,0.8c3.1-2.9,7.8-2.8,8-1.2c0.3,1.5,1.2,3.4,5.4,3.1c4.2-0.3,17.4,0.6,17.4-4.2s7.2-4.9,8.6-3.7
		c1.2,1.2,2,6.9,3.1-0.6c1.1-7.7,4.2-12.6,7.8-3.7c3.7,8.8,2.6,9.5,4.5,11.4c1.8,1.8,2.9,4.9,2.9,8s7.1,9.4,9.5,13.2
		c2.6,3.8,9.8,10.9,12,13.5c1.5,1.8,3.4,11.4,6.5,15.8c3.1,4.5,6.6,5.2,9.1,14C184,86.2,184.2,86.7,184.2,86.7"/>
	<path fill="none" stroke="#000000" stroke-miterlimit="10" d="M146.2,186.5c0,0-0.8-2.8-0.8-3.2c-0.2-1.5,2.3-1.4,4-2.3
		c1.7-0.9,6.6-9.1,8.9-11.4c2.3-2.3-3.7-7.7-4.8-8.8c-1.2-1.2-4.6,0.9-8.8,1.2s-2.2,3.4-7.2,5.4c-5.1,2-1.5,5.4-1.5,5.4
		c4,4.2-1.2,11.8-1.2,11.8S142.8,184.1,146.2,186.5z"/>
	<path fill="none" stroke="#000000" stroke-miterlimit="10" d="M104.2,89v-0.5c0,0,0.6-7.8,1.2-10.2s0.2-6-0.5-7.4
		c-0.5-1.2,0.2-2.3,0.2-2.3c4.3-9.4-2.8-6.8-5.2-7.4c-1.4-0.3-5.2-1.2-5.7-3.1c-0.5-2-1.7-5.8-1.7-8.9c0-3.1,1.5-4.2,1.5-5.7
		c0-1.5,2.2-6.8-10.9-13.7c-13.1-6.8-9.4-11.4-9.4-11.4s-13.2,3.2-14.2,3.8c-0.9,0.6-4.6,3.1-6,3.4c-1.1,0.3-4.3,1.5,0,3.4
		s8,3.2,1.8,7.4s-6.9,1.4-4.5,4.2c2.5,2.8,1.8,5.4-4.6,8.5c0,0-6.3,5.1-2.9,7.5c0,0,1.2-0.5,1.2,4.8c0,0-0.5,1.2,2.9,0.3
		c3.5-0.9,6.8-0.9,7.8,0.8c1.1,1.7,3.8,6-3.4,11.7l-4,4.3c0,0,0.2,4.3-2,5.1c-2.3,0.8-3.2,2.9-1.4,5.5c1.8,2.6,6.9,8.3,7.1,8.9
		c0.2,0.8,3.5,8.3,14.5,4.8c0,0,4.2-2.5,10.8,0c6.6,2.5,7.8,2,7.8,2s3.4-6.5,4.8-7.2c1.4-0.8,5.1-1.4,6.9-2.5
		c1.8-1.1,6.5-5.1,6.5-5.1l0.9-0.8L104.2,89z"/>
	<path fill="none" stroke="#000000" stroke-miterlimit="10" d="M91.7,146.2l-0.5,0.6c-1.4,2-1.2,1.7-1.7,2.2
		c-0.5,0.5-2.3,1.7-4.2,0.6c-2-1.1-5.7,0-6.3-8.8c-0.6-8.9,6-7.7,6.8-9.5c0,0,0.5-1.4,0.3-2.2c-0.2-0.8,4,3.2,4.9,3.5
		c1.1,0.3,1.7,0.2,2.3,1.2c0.5,1.1,0.5,3.8,0.2,5.2s-0.8,4.8-0.9,5.2L91.7,146.2z"/>
	<path fill="none" stroke="#000000" stroke-miterlimit="10" d="M47.8,78.7c0.5-5.4-2-8.5-5.8-8.8s-3.4,8-10.2,0s-1.2-7.5-2.3-9.5
		c-1.1-2-5.7-1.1-7.1-2c-1.2-1.1-3.1-2.3-1.1-4.6c2.2-2.3,2.6-3.8,4.6-6c2.2-2,3.7,0.9,6.2-1.1c0.9-0.8,1.5-4.6,4.2-3.4
		c2.6,1.2,4,3.7,4.9,4.9c0,0,1.1,2.2,4.6,1.4l0,0c0,0-6.2,4.9-2.8,7.4c0,0,1.2-0.5,1.2,4.8c0,0-0.5,1.2,2.9,0.3
		c3.5-0.9,6.8-0.9,7.8,0.8c1.1,1.7,3.8,6-3.4,11.7l-3.7,4L47.8,78.7z"/>
	<path fill="none" stroke="#000000" stroke-miterlimit="10" d="M56.2,69.8c0,0,7.1,0.9,8.5,2c1.4,1.1,5.1,0.5,5.7-1.5s3.1-0.8,4.3-2
		s1.2-2.9,0.6-4.5c-0.5-1.5-1.2-1.1-1.2-3.2c-0.2-2-2-4.8-4-6.2c-2-1.2-4.6,0-5.4,1.1c-0.9,1.1-8.6,8-8.6,8S57.4,65.6,56.2,69.8z"/>
	<path fill="none" stroke="#000000" stroke-miterlimit="10" d="M80.6,116.7c-0.8,1.1-0.9,2.8,1.5,5.8c1.5,2,4.2,6.8,4.2,6.8l0,0
		c0.3,0.6-0.5,2-0.5,2c-0.8,1.2-4.3,1.1-6,4.2h-0.5c0,0,0,0-2-0.5c-2-0.5-2.5-2.5-3.1-7.1c-0.6-4.5,0.8-4.3-0.8-4.5
		s-0.6-1.7-0.2-3.4c0.5-1.5-0.9-2.9-1.4-5.1s2.6-3.7,3.5-1.7c1.2,2.8,5.2,2.9,5.2,2.9S80.8,116.7,80.6,116.7z"/>
	<path fill="none" stroke="#000000" stroke-miterlimit="10" d="M48.5,210.2c0.3-0.8,1.1,0.3,3.1-0.2c2-0.5,4.5-1.7,7.5-1.1
		s7.1,4.3,6.2,10.5c-1.1,6.2-9.1,5.2-11.2,3.7c-1.7-1.2-0.2-2-4.3-3.4c-4.2-1.4-3.1-4-1.7-6.2C48,213.6,48,211.5,48.5,210.2z"/>
</g>
</svg>
